<svg width="50" height="50" viewBox="0 0 50 50" fill="none" xmlns="http://www.w3.org/2000/svg">
<path d="M25.0001 3.125C30.8021 3.125 36.3665 5.42985 40.4691 9.5325C44.5718 13.6351 46.8766 19.1995 46.8766 25.0016C46.8766 30.8036 44.5718 36.368 40.4691 40.4706C36.3665 44.5733 30.8021 46.8781 25.0001 46.8781C19.1981 46.8781 13.6337 44.5733 9.53103 40.4706C5.42838 36.368 3.12354 30.8036 3.12354 25.0016C3.12354 19.1995 5.42838 13.6351 9.53103 9.5325C13.6337 5.42985 19.1981 3.125 25.0001 3.125ZM28.2813 16.5563C29.9063 16.5563 31.2251 15.4281 31.2251 13.7563C31.2251 12.0844 29.9032 10.9563 28.2813 10.9563C26.6563 10.9563 25.3438 12.0844 25.3438 13.7563C25.3438 15.4281 26.6563 16.5563 28.2813 16.5563ZM28.8532 34.1406C28.8532 33.8063 28.9688 32.9375 28.9032 32.4438L26.3345 35.4C25.8032 35.9594 25.1376 36.3469 24.8251 36.2438C24.6833 36.1916 24.5648 36.0905 24.4909 35.9587C24.417 35.827 24.3926 35.6732 24.422 35.525L28.7032 22C29.0532 20.2844 28.0907 18.7188 26.0501 18.5188C23.897 18.5188 20.7282 20.7031 18.8001 23.475C18.8001 23.8063 18.7376 24.6313 18.8032 25.125L21.3688 22.1656C21.9001 21.6125 22.5188 21.2219 22.8313 21.3281C22.9853 21.3834 23.1115 21.4968 23.1827 21.644C23.254 21.7913 23.2647 21.9606 23.2126 22.1156L18.9688 35.575C18.4782 37.15 19.4063 38.6938 21.6563 39.0438C24.9688 39.0438 26.9251 36.9125 28.8563 34.1406H28.8532Z" fill="white"/>
</svg>
