<svg width="30" height="30" viewBox="0 0 30 30" fill="none" xmlns="http://www.w3.org/2000/svg">
<g clip-path="url(#clip0_61_11)">
<path d="M23.715 1.07392L15 9.78939C12.0952 6.88548 9.18938 3.97876 6.28406 1.07392C2.92313 -2.28702 -2.28656 2.92454 1.07156 6.28642C3.97734 9.18939 6.88406 12.0966 9.78656 15.0014C6.88273 17.9076 3.97773 20.8126 1.07156 23.7164C-2.28656 27.0764 2.92359 32.2866 6.28406 28.9289C9.18891 26.0231 12.0947 23.1169 14.9995 20.213L23.7145 28.9289C27.0755 32.2889 32.2866 27.0769 28.927 23.7164C26.0213 20.8106 23.1164 17.9058 20.2097 15.0005C23.1159 12.0947 26.0208 9.18892 28.927 6.28361C32.287 2.92454 27.0759 -2.28702 23.7145 1.07579" fill="#EC1C24"/>
</g>
<defs>
<clipPath id="clip0_61_11">
<rect width="30" height="30" fill="white"/>
</clipPath>
</defs>
</svg>
